<?xml version="1.0" encoding="UTF-8"?>
<svg width="120px" height="120px" viewBox="0 0 120 120" version="1.1" xmlns="http://www.w3.org/2000/svg" xmlns:xlink="http://www.w3.org/1999/xlink">
    <!-- Generator: Sketch 51.2 (57519) - http://www.bohemiancoding.com/sketch -->
    <title>Group 21</title>
    <desc>Created with Sketch.</desc>
    <defs></defs>
    <g id="Base-design--Spec-0928" stroke="none" stroke-width="1" fill="none" fill-rule="evenodd">
        <g id="All-svgs" transform="translate(-288.000000, -704.000000)">
            <g id="Group-21" transform="translate(288.000000, 704.000000)">
                <circle id="Oval-2-Copy-4" fill="#A8ABB3" fill-rule="nonzero" cx="60" cy="60" r="60"></circle>
                <path d="M44.857151,71.8571367 C44.857151,70.9196356 44.0803644,70.142849 43.1428633,70.142849 C42.2053622,70.142849 41.4285755,70.9196356 41.4285755,71.8571367 C41.4285755,72.7946378 42.2053622,73.5714245 43.1428633,73.5714245 C44.0803644,73.5714245 44.857151,72.7946378 44.857151,71.8571367 Z M75.7143307,56.4285469 C75.7143307,54.6071162 74.0804002,52.9999714 72.2857552,52.9999714 L62.8571725,52.9999714 C62.8571725,49.8660391 65.4286041,47.5892507 65.4286041,44.4285326 C65.4286041,41.2946003 64.812532,39.2856693 61.1428847,39.2856693 C59.428597,41.0267428 60.3125266,45.124962 57.7143092,47.8571081 C56.9643083,48.6338948 56.3214504,49.4642529 55.6518068,50.294611 C54.4464482,51.8481843 51.2589444,56.4285469 49.1428704,56.4285469 L48.2857265,56.4285469 L48.2857265,73.5714245 L49.1428704,73.5714245 C50.6428722,73.5714245 53.1071609,74.5357113 54.5535912,75.0446405 C57.5000232,76.0624989 60.5535983,77 63.7143164,77 L66.9553917,77 C69.982181,77 72.0982549,75.7946414 72.0982549,72.5267804 C72.0982549,72.0178512 72.0446834,71.508922 71.9643262,71.0267786 C73.0893275,70.4107064 73.7053997,68.8839189 73.7053997,67.6517746 C73.7053997,67.0089167 73.5446852,66.3660588 73.2232563,65.8035581 C74.1339716,64.9464142 74.6429008,63.8749844 74.6429008,62.6160543 C74.6429008,61.7589104 74.2679004,60.4999803 73.7053997,59.8571224 C74.9643298,59.8303367 75.7143307,57.4196195 75.7143307,56.4285469 Z M79.1429062,56.4017612 C79.1429062,57.9553344 78.6875485,59.482122 77.8304046,60.7678378 C77.9911191,61.3571242 78.0714763,61.9999821 78.0714763,62.6160543 C78.0714763,63.9553416 77.7232616,65.2946289 77.053618,66.4732017 C77.1071895,66.8482022 77.1339752,67.2499884 77.1339752,67.6249888 C77.1339752,69.3392766 76.5714746,71.0535643 75.5268304,72.3928517 C75.5804019,77.4553577 72.1250407,80.4285755 67.1696776,80.4285755 L63.7143164,80.4285755 C59.9107404,80.4285755 56.3750219,79.3035742 52.8393034,78.0714298 C52.0625168,77.8035724 49.8928713,77 49.1428704,77 L41.4285755,77 C39.5267875,77 38,75.4732125 38,73.5714245 L38,56.4285469 C38,54.5267589 39.5267875,52.9999714 41.4285755,52.9999714 L48.76787,52.9999714 C49.8125141,52.303542 51.6339448,49.8928248 52.4375172,48.8481807 C53.3482326,47.6696079 54.2857337,46.5178208 55.3035921,45.4196052 C56.9107368,43.7053175 56.053593,39.4731696 58.7321676,36.8481664 C59.3750255,36.2320943 60.2321694,35.8570938 61.1428847,35.8570938 C63.9286023,35.8570938 66.607177,36.8481664 67.9196785,39.4463838 C68.7500367,41.0803143 68.8571796,42.6338876 68.8571796,44.4285326 C68.8571796,46.3035348 68.3750362,47.9106796 67.5714638,49.5713959 L72.2857552,49.5713959 C75.9821881,49.5713959 79.1429062,52.7053282 79.1429062,56.4017612 Z" id="thumbs-o-up---FontAwesome-Copy-3" fill="#FFFFFF"></path>
            </g>
        </g>
    </g>
</svg>