<?xml version="1.0" encoding="UTF-8"?>
<svg width="120px" height="120px" viewBox="0 0 120 120" version="1.1" xmlns="http://www.w3.org/2000/svg" xmlns:xlink="http://www.w3.org/1999/xlink">
    <!-- Generator: Sketch 51.2 (57519) - http://www.bohemiancoding.com/sketch -->
    <title>Group 20</title>
    <desc>Created with Sketch.</desc>
    <defs></defs>
    <g id="Base-design--Spec-0928" stroke="none" stroke-width="1" fill="none" fill-rule="evenodd">
        <g id="All-svgs" transform="translate(-138.000000, -704.000000)">
            <g id="Group-20" transform="translate(138.000000, 704.000000)">
                <circle id="Oval-2-Copy-2" fill="#A8ABB3" fill-rule="nonzero" cx="60" cy="60" r="60"></circle>
                <path d="M44.857151,47.8571081 C44.857151,46.919607 44.0803644,46.1428204 43.1428633,46.1428204 C42.2053622,46.1428204 41.4285755,46.919607 41.4285755,47.8571081 C41.4285755,48.7946092 42.2053622,49.5713959 43.1428633,49.5713959 C44.0803644,49.5713959 44.857151,48.7946092 44.857151,47.8571081 Z M75.7143307,63.2856979 C75.7143307,62.2946253 74.9643298,59.8839082 73.7053997,59.8571224 C74.2679004,59.2142645 74.6429008,57.9553344 74.6429008,57.0981906 C74.6429008,55.8392605 74.1339716,54.7678306 73.2232563,53.9106868 C73.5446852,53.3481861 73.7053997,52.7053282 73.7053997,52.0624703 C73.7053997,50.8303259 73.0893275,49.3035384 71.9643262,48.6874662 C72.0446834,48.2053228 72.0982549,47.6963936 72.0982549,47.1874645 C72.0982549,44.0535322 70.1161097,42.7142448 67.1428919,42.7142448 L63.7143164,42.7142448 C60.5535983,42.7142448 57.5000232,43.651746 54.5535912,44.6696043 C53.1071609,45.1785335 50.6428722,46.1428204 49.1428704,46.1428204 L48.2857265,46.1428204 L48.2857265,63.2856979 L49.1428704,63.2856979 C51.2589444,63.2856979 54.4464482,67.8660605 55.6518068,69.4196338 C56.3214504,70.249992 56.9643083,71.0803501 57.7143092,71.8571367 C60.3125266,74.5892828 59.428597,78.687502 61.1428847,80.4285755 C64.812532,80.4285755 65.4286041,78.4196445 65.4286041,75.2857122 C65.4286041,72.1249942 62.8571725,69.8482058 62.8571725,66.7142735 L72.2857552,66.7142735 C74.0804002,66.7142735 75.7143307,65.1071287 75.7143307,63.2856979 Z M79.1429062,63.3124837 C79.1429062,67.0089167 75.9821881,70.142849 72.2857552,70.142849 L67.5714638,70.142849 C68.3750362,71.8035652 68.8571796,73.41071 68.8571796,75.2857122 C68.8571796,77.0535715 68.7500367,78.6607163 67.9196785,80.267861 C66.607177,82.8660784 63.9286023,83.857151 61.1428847,83.857151 C60.2321694,83.857151 59.3750255,83.4821506 58.7321676,82.8660784 C56.053593,80.2410753 56.8839511,76.0089274 55.3035921,74.2678539 C54.2857337,73.196424 53.3482326,72.0446369 52.4375172,70.8660641 C51.6339448,69.82142 49.8125141,67.4107029 48.76787,66.7142735 L41.4285755,66.7142735 C39.5267875,66.7142735 38,65.1874859 38,63.2856979 L38,46.1428204 C38,44.2410324 39.5267875,42.7142448 41.4285755,42.7142448 L49.1428704,42.7142448 C49.8928713,42.7142448 52.0625168,41.9106725 52.8393034,41.642815 C56.6964509,40.3035277 60.0446691,39.2856693 64.1696741,39.2856693 L67.1696776,39.2856693 C72.0446834,39.2856693 75.5536162,42.1785299 75.5268304,47.1874645 L75.5268304,47.3213932 C76.5714746,48.6606805 77.1339752,50.3749683 77.1339752,52.089256 C77.1339752,52.4642565 77.1071895,52.8660427 77.053618,53.2410431 C77.7232616,54.4196159 78.0714763,55.7589033 78.0714763,57.0981906 C78.0714763,57.7142627 77.9911191,58.3571206 77.8304046,58.946407 C78.6875485,60.2321229 79.1429062,61.7589104 79.1429062,63.3124837 Z" id="-copy" fill="#FFFFFF"></path>
            </g>
        </g>
    </g>
</svg>